<svg version="1.1" id="Layer_1" xmlns="http://www.w3.org/2000/svg" xmlnsXlink="http://www.w3.org/1999/xlink" x="0px" y="0px" width="100%" viewBox="0 0 512 512" enableBackground="new 0 0 512 512" xmlSpace="preserve">
	<path opacity="1.000000" stroke="none" d="M425.531342,1.000000 C430.143768,4.343939 435.531647,4.416221 440.243927,6.344934 C470.384369,18.681206 489.295654,40.835548 495.853424,72.343933 C501.489807,99.425201 496.115173,125.199379 478.608337,147.088882 C461.055359,169.036087 438.018616,180.767090 409.339050,181.544846 C387.744843,182.130432 368.854309,175.577133 351.636414,163.282562 C348.060455,160.729111 344.466003,157.906433 341.906738,154.189682 C339.702545,150.988678 337.251343,151.080627 334.237488,152.895996 C314.359070,164.869354 294.438232,176.772354 274.560028,188.746094 C250.838043,203.035126 227.171799,217.416885 203.427094,231.667984 C192.628159,238.149338 192.719177,238.019699 195.275528,250.418167 C198.080536,264.022675 198.801346,277.708679 195.466797,291.360168 C194.494843,295.339325 195.754822,297.516876 199.555298,299.427643 C234.903687,317.199310 270.225708,335.028564 305.349915,353.237457 C313.755402,357.594971 322.286591,361.722809 330.590179,366.279175 C333.061066,367.635010 334.670929,367.635498 336.824371,365.098511 C352.127045,347.070435 371.432495,335.555054 395.017181,332.951355 C421.732300,330.002045 446.096832,336.412506 466.786591,354.472992 C484.033417,369.528015 494.443817,388.514893 497.010834,411.025726 C500.053528,437.708344 493.521454,461.984924 475.472778,482.761108 C462.962189,497.162354 447.474396,506.258118 429.307983,511.264252 C428.038086,511.614227 426.819000,512.148499 425.288147,512.798584 C413.312439,513.000000 401.624878,513.000000 389.468658,513.000000 C384.633942,510.166992 379.385986,509.846924 374.643921,507.987152 C362.708954,503.306274 351.739349,496.895050 342.904633,487.880249 C329.786835,474.495087 320.677429,458.446503 317.765503,439.630890 C315.725555,426.449646 315.453613,413.119354 319.032867,400.086975 C319.980530,396.636414 317.934723,396.023407 315.908630,394.985626 C300.073486,386.874817 284.219666,378.800507 268.381775,370.695038 C241.154236,356.760681 213.910416,342.857635 186.736191,328.820007 C182.656982,326.712769 180.021042,326.041901 176.342209,330.403931 C167.279068,341.150208 156.409683,349.838684 143.229507,355.423706 C127.030670,362.287872 110.280182,363.782349 93.007454,361.587921 C73.663033,359.130280 57.220181,350.372253 43.421196,337.151978 C29.937727,324.233948 21.075754,308.098175 17.926228,289.649841 C14.357895,268.748291 16.244587,248.272491 26.766022,229.202911 C41.067394,203.282394 62.612907,187.399170 91.877647,182.654861 C117.490211,178.502625 141.060181,183.963669 162.062012,199.444839 C165.358002,201.874435 168.721603,204.335922 171.104950,207.831741 C173.191483,210.892197 175.619873,210.917755 178.770996,209.015594 C211.598648,189.199249 244.488907,169.486572 277.364594,149.749802 C290.742615,141.718384 304.110901,133.670563 317.522034,125.694763 C320.482330,123.934242 321.273590,122.087189 320.291077,118.414909 C312.387085,88.873482 315.823730,61.061985 334.419830,36.105732 C346.612823,19.742514 362.875183,9.037167 382.503815,3.401301 C384.207489,2.912138 386.192535,3.005873 387.789062,1.285185 C400.354218,1.000000 412.708466,1.000000 425.531342,1.000000 M154.261963,237.178391 C141.533035,220.614944 124.934059,212.634949 103.848030,213.257736 C80.757561,213.939697 60.013596,230.113617 52.448200,249.862183 C44.531326,270.528229 46.808048,290.304871 60.736698,308.060730 C70.813995,320.906982 83.919235,329.010681 100.279213,330.525085 C123.326050,332.658539 141.695816,323.920685 155.500305,305.284912 C169.460968,286.438385 169.216904,256.067230 154.261963,237.178391 M349.417786,409.919037 C345.737854,430.899963 350.562744,449.043152 365.766693,464.688660 C386.344666,485.864258 421.306732,487.538361 443.581146,468.900940 C461.507202,453.901917 468.843140,434.785339 464.700226,411.680054 C461.259186,392.489258 449.863708,378.703339 432.900848,370.207764 C414.911804,361.198242 396.315155,361.675385 378.544586,371.551697 C363.614197,379.849579 354.057312,392.589111 349.417786,409.919037 M354.213806,64.659805 C349.751892,73.793839 348.124146,83.409401 348.252380,93.588295 C348.540009,116.415977 364.311646,137.085297 383.954376,145.191788 C404.951630,153.857285 425.425415,151.443939 443.412903,136.899094 C461.416168,122.341507 468.662567,103.258736 464.813324,80.306175 C461.582397,61.040253 450.264282,47.181541 433.464172,38.497261 C415.410980,29.165243 396.693573,29.709955 378.610748,39.461288 C368.090973,45.134186 360.399689,53.695118 354.213806,64.659805 z" />
</svg> 